<?xml version="1.0" standalone="no"?>
<!DOCTYPE svg PUBLIC "-//W3C//DTD SVG 20010904//EN"
 "http://www.w3.org/TR/2001/REC-SVG-20010904/DTD/svg10.dtd">
<svg version="1.0" xmlns="http://www.w3.org/2000/svg"
 width="2100.000000pt" height="2100.000000pt" viewBox="0 0 2100.000000 2100.000000"
 preserveAspectRatio="xMidYMid meet">
<metadata>
Created by potrace 1.16, written by Peter Selinger 2001-2019
</metadata>
<g transform="translate(0.000000,2100.000000) scale(0.100000,-0.100000)"
fill="#000000" stroke="none">
<path d="M15767 19414 c-59 -206 -178 -493 -271 -649 -68 -114 -125 -229 -238
-475 -115 -252 -339 -690 -431 -844 -90 -152 -555 -847 -656 -981 -100 -134
-259 -337 -405 -520 -176 -221 -568 -620 -886 -903 -91 -81 -191 -171 -222
-201 -32 -30 -61 -52 -64 -49 -7 8 50 436 76 571 11 57 34 143 50 193 42 123
61 202 119 484 27 135 70 329 95 432 26 103 46 207 46 230 0 24 9 93 18 155
30 183 -17 102 -63 -108 -15 -68 -46 -205 -70 -304 -24 -99 -60 -259 -80 -355
-55 -270 -85 -386 -126 -496 -44 -119 -75 -268 -123 -609 -20 -137 -38 -260
-41 -272 -8 -34 -188 -183 -550 -457 -442 -335 -669 -493 -1005 -701 -96 -60
-220 -139 -275 -176 -221 -147 -746 -432 -995 -540 -91 -39 -240 -104 -331
-144 -91 -41 -226 -98 -300 -129 -74 -30 -181 -77 -239 -104 -58 -27 -158 -66
-223 -86 -117 -38 -138 -49 -120 -67 6 -6 30 -3 64 10 30 11 85 27 123 36 38
8 126 41 195 71 69 31 205 87 301 124 319 125 673 270 795 327 212 99 635 328
795 431 47 30 171 107 275 170 292 176 608 391 970 660 182 135 362 272 402
304 39 32 73 58 75 58 2 0 -11 -82 -29 -182 -18 -101 -46 -293 -63 -428 -17
-135 -42 -306 -55 -380 -31 -168 -41 -338 -57 -892 -9 -329 -9 -538 -1 -840 6
-222 9 -423 6 -448 -5 -42 5 -408 27 -965 6 -156 19 -301 35 -415 42 -293 74
-556 90 -741 17 -208 34 -319 121 -814 52 -295 80 -425 139 -640 40 -148 85
-317 100 -375 78 -312 184 -649 327 -1035 246 -665 309 -826 390 -995 208
-432 624 -1256 693 -1370 45 -74 105 -180 135 -235 29 -55 85 -156 125 -225
39 -69 90 -162 113 -208 52 -102 118 -201 177 -267 l46 -50 -29 60 c-16 33
-57 124 -91 201 -34 78 -90 191 -123 250 -33 60 -100 181 -148 269 -48 88
-121 216 -161 285 -41 69 -105 193 -144 275 -38 83 -116 242 -173 355 -107
210 -283 574 -377 780 -60 132 -128 309 -286 740 -218 598 -270 767 -443 1450
-87 343 -116 481 -171 795 -77 446 -102 615 -110 745 -8 131 -40 407 -80 705
-39 289 -42 328 -56 770 -26 770 -30 1902 -10 2380 8 176 20 329 36 440 14 94
36 269 50 390 33 297 82 634 100 696 5 14 194 186 390 354 200 172 567 524
740 712 108 116 457 546 617 758 98 130 503 733 606 902 171 278 510 967 645
1308 64 162 146 413 181 553 31 123 69 319 64 333 -2 6 -16 -33 -31 -87z"/>
<path d="M7286 17590 c-53 -117 -99 -284 -115 -420 -16 -121 -13 -475 4 -685
24 -285 32 -242 -106 -513 -122 -241 -235 -486 -307 -667 -339 -857 -398
-1032 -541 -1585 -28 -107 -73 -252 -101 -322 -27 -71 -68 -193 -90 -273 -22
-80 -53 -184 -70 -231 -33 -96 -107 -378 -140 -529 -11 -55 -43 -188 -70 -295
-27 -107 -56 -238 -65 -290 -9 -52 -29 -147 -45 -211 -16 -64 -39 -190 -50
-280 -12 -90 -23 -171 -25 -179 -11 -38 -27 -211 -35 -375 -5 -99 -16 -223
-24 -275 -30 -182 -56 -406 -71 -600 -8 -107 -28 -323 -44 -480 -16 -157 -32
-325 -35 -375 -18 -264 -40 -545 -67 -845 -38 -425 -48 -693 -56 -1415 -4
-459 -2 -647 11 -900 9 -176 21 -459 26 -630 11 -331 28 -475 76 -644 22 -75
103 -266 110 -258 1 1 -4 29 -12 62 -19 82 -41 225 -49 315 -11 131 -13 538
-5 740 6 137 5 266 -5 435 -23 411 -28 807 -16 1310 13 529 19 645 55 1070 14
160 34 427 46 595 17 254 66 789 84 920 3 19 28 177 56 350 27 173 79 506 115
740 71 468 158 906 265 1335 73 294 173 652 190 682 5 10 18 52 29 93 22 89
168 599 253 890 33 112 104 326 158 475 121 337 147 414 210 645 62 224 94
310 203 550 107 236 172 357 181 335 3 -9 6 -60 6 -113 0 -53 9 -176 20 -272
28 -240 35 -473 21 -666 -26 -339 41 -806 240 -1659 38 -165 92 -401 120 -525
28 -124 75 -319 105 -435 119 -463 235 -930 274 -1105 24 -106 76 -289 121
-428 l81 -243 -31 -102 c-37 -122 -115 -361 -205 -627 -83 -245 -104 -319
-165 -583 -68 -293 -96 -443 -126 -668 -14 -107 -53 -385 -85 -619 -62 -449
-70 -521 -95 -800 -9 -96 -24 -242 -35 -325 -19 -148 -53 -483 -85 -825 -9
-96 -25 -265 -35 -375 -96 -973 -124 -1381 -123 -1795 1 -282 5 -337 53 -690
49 -366 96 -576 189 -840 35 -100 37 -89 16 120 -8 80 -19 314 -25 520 -5 206
-15 519 -20 695 -6 206 -6 386 0 505 5 102 14 276 20 387 5 111 28 415 50 675
22 260 49 592 60 738 31 403 69 828 80 895 5 33 23 204 40 380 17 176 60 520
95 765 35 245 75 528 90 630 37 263 134 736 221 1080 42 162 96 376 121 475
40 163 63 228 63 183 0 -25 143 -457 222 -673 39 -104 99 -273 133 -375 125
-364 298 -791 505 -1245 170 -372 440 -903 562 -1105 423 -698 466 -768 722
-1150 221 -331 619 -866 763 -1025 55 -60 340 -351 634 -646 388 -390 594
-588 754 -726 121 -105 267 -232 325 -283 160 -141 340 -276 610 -456 135 -90
286 -193 335 -228 133 -95 287 -176 458 -244 198 -78 220 -83 117 -27 -108 59
-276 182 -465 341 -238 200 -370 304 -508 399 -153 105 -366 275 -497 394 -52
48 -180 161 -284 251 -216 187 -562 523 -1017 985 -367 374 -408 419 -565 625
-64 85 -172 227 -239 315 -134 176 -427 603 -580 845 -193 304 -510 827 -567
935 -83 156 -364 733 -441 905 -215 484 -370 864 -474 1165 -30 88 -92 261
-138 385 -77 209 -151 428 -257 758 l-42 133 18 72 c67 262 230 581 413 807
87 108 235 247 328 308 119 78 287 158 400 189 95 26 111 28 310 27 196 0 216
-2 309 -27 375 -102 701 -400 906 -830 132 -276 208 -606 240 -1047 6 -80 17
-172 24 -205 l13 -60 8 60 c5 33 9 177 9 320 1 471 -44 696 -205 1016 -180
360 -434 619 -764 779 -336 162 -675 172 -1040 30 -347 -136 -677 -451 -864
-826 -51 -102 -133 -312 -146 -374 -4 -19 -11 -41 -15 -49 -12 -22 -113 304
-165 534 -26 116 -89 381 -140 590 -144 585 -176 736 -371 1740 -55 281 -127
726 -148 907 -12 95 -16 225 -15 453 0 284 -3 345 -26 540 -15 129 -30 328
-36 482 l-9 263 47 92 c26 51 104 179 173 283 154 232 205 314 198 320 -9 9
-120 -79 -209 -166 -80 -78 -182 -204 -221 -274 l-17 -30 -1 60 c0 82 -29 400
-40 450 -18 79 -32 312 -26 415 4 58 16 156 26 219 11 63 18 116 17 118 -2 2
-16 -24 -31 -57z"/>
</g>
</svg>
